HIERARCHY
ROOT hip
{
	OFFSET 0.00000 0.00000 0.00000
	CHANNELS 6 Xposition Yposition Zposition Zrotation Yrotation Xrotation
	JOINT lhipjoint
	{
		OFFSET 0 0 0
		CHANNELS 3 Zrotation Yrotation Xrotation
		JOINT lfemur
		{
			OFFSET 1.57314 -1.85774 0.63783
			CHANNELS 3 Zrotation Yrotation Xrotation
			JOINT ltibia
			{
				OFFSET 2.57982 -7.08799 0.00000
				CHANNELS 3 Zrotation Yrotation Xrotation
				JOINT lfoot
				{
					OFFSET 2.63993 -7.25315 0.00000
					CHANNELS 3 Zrotation Yrotation Xrotation
					JOINT ltoes
					{
						OFFSET 0.16864 -0.46332 2.12791
						CHANNELS 3 Zrotation Yrotation Xrotation
						End Site
						{
							OFFSET 0.00000 -0.00000 1.09718
						}
					}
				}
			}
		}
	}
	JOINT rhipjoint
	{
		OFFSET 0 0 0
		CHANNELS 3 Zrotation Yrotation Xrotation
		JOINT rfemur
		{
			OFFSET -1.56006 -1.85774 0.63784
			CHANNELS 3 Zrotation Yrotation Xrotation
			JOINT rtibia
			{
				OFFSET -2.54246 -6.98536 0.00000
				CHANNELS 3 Zrotation Yrotation Xrotation
				JOINT rfoot
				{
					OFFSET -2.65791 -7.30256 0.00000
					CHANNELS 3 Zrotation Yrotation Xrotation
					JOINT rtoes
					{
						OFFSET -0.18435 -0.50650 2.16316
						CHANNELS 3 Zrotation Yrotation Xrotation
						End Site
						{
							OFFSET -0.00000 -0.00000 1.11780
						}
					}
				}
			}
		}
	}
	JOINT lowerback
	{
		OFFSET 0 0 0
		CHANNELS 3 Zrotation Yrotation Xrotation
		JOINT upperback
		{
			OFFSET -0.00136 1.92812 -0.29638
			CHANNELS 3 Zrotation Yrotation Xrotation
			JOINT thorax
			{
				OFFSET -0.00528 1.96223 -0.02928
				CHANNELS 3 Zrotation Yrotation Xrotation
				JOINT lowerneck
				{
					OFFSET 0 0 0
					CHANNELS 3 Zrotation Yrotation Xrotation
					JOINT upperneck
					{
						OFFSET -0.01015 1.75586 0.07797
						CHANNELS 3 Zrotation Yrotation Xrotation
						JOINT head
						{
							OFFSET 0.05540 1.72452 0.04558
							CHANNELS 3 Zrotation Yrotation Xrotation
							End Site
							{
								OFFSET 0.02170 1.79958 0.00864
							}
						}
					}
				}
				JOINT lclavicle
				{
					OFFSET 0 0 0
					CHANNELS 3 Zrotation Yrotation Xrotation
					JOINT lhumerus
					{
						OFFSET 3.16292 1.29277 -0.65728
						CHANNELS 3 Zrotation Yrotation Xrotation
						JOINT lradius
						{
							OFFSET 5.52302 -0.00000 -0.00000
							CHANNELS 3 Zrotation Yrotation Xrotation
							JOINT lwrist
							{
								OFFSET 3.58675 -0.00000 -0.00000
								CHANNELS 3 Zrotation Yrotation Xrotation
								JOINT lhand
								{
									OFFSET 0 0 0
									CHANNELS 3 Zrotation Yrotation Xrotation
									JOINT lfingers
									{
										OFFSET 0.53641 -0.00000 -0.00000
										CHANNELS 3 Zrotation Yrotation Xrotation
										End Site
										{
											OFFSET 0.43247 -0.00000 -0.00000
										}
									}
								}
								JOINT lthumb
								{
									OFFSET 0 0 0
									CHANNELS 3 Zrotation Yrotation Xrotation
									End Site
									{
										OFFSET 0.43907 -0.00000 0.43907
									}
								}
							}
						}
					}
				}
				JOINT rclavicle
				{
					OFFSET 0 0 0
					CHANNELS 3 Zrotation Yrotation Xrotation
					JOINT rhumerus
					{
						OFFSET -3.08296 1.43376 -0.52927
						CHANNELS 3 Zrotation Yrotation Xrotation
						JOINT rradius
						{
							OFFSET -5.84780 -0.00000 0.00000
							CHANNELS 3 Zrotation Yrotation Xrotation
							JOINT rwrist
							{
								OFFSET -3.62717 -0.00000 -0.00000
								CHANNELS 3 Zrotation Yrotation Xrotation
								JOINT rhand
								{
									OFFSET 0 0 0
									CHANNELS 3 Zrotation Yrotation Xrotation
									JOINT rfingers
									{
										OFFSET -0.65052 -0.00000 -0.00000
										CHANNELS 3 Zrotation Yrotation Xrotation
										End Site
										{
											OFFSET -0.52446 -0.00000 -0.00000
										}
									}
								}
								JOINT rthumb
								{
									OFFSET 0 0 0
									CHANNELS 3 Zrotation Yrotation Xrotation
									End Site
									{
										OFFSET -0.53247 -0.00000 0.53247
									}
								}
							}
						}
					}
				}
			}
		}
	}
}
MOTION
Frames: 12
Frame Time: 0.033333
4.2237 -6.7249 -9.0085 5.8814 28.2187 -14.9999 2.3117 13.4067 4.3493 0.5243 -3.7068 16.0802 -9.7249 18.6975 11.9004 5.2591 -8.9485 16.2931 -14.4604 -9.9614 -6.8059 -21.2580 -27.5112 15.3787 17.6813 23.6966 -12.6055 16.2925 -26.4953 3.7489 -20.6317 8.9670 -34.2282 10.2546 -12.5348 -2.6667 5.4214 -3.7727 9.7949 -0.8391 -4.7974 -1.5979 7.1674 6.9537 -4.7637 -6.6422 -3.8174 -11.6823 3.5584 4.4294 -3.4077 8.5202 2.9367 -9.8295 -1.8805 -3.5394 -6.8345 -4.6807 0.2995 1.7273 5.6647 -22.6284 -5.8695 15.8916 -8.6306 -10.5603 10.7366 2.4105 0.5173 -2.7608 -3.4998 0.0471 -2.3276 -0.0079 1.8000 -0.0036 2.4848 8.1625 1.1626 -0.8343 -4.1487 -1.9057 0.1599 0.0175 -0.0794 0.0229 -0.0063 -0.0070 0.0000 -0.0094 -0.0023 0.0000 -0.0209 0.0000 0.0000 0.0000
-1.3364 12.7085 -21.9910 4.8368 12.1797 -6.7431 1.4599 -42.0958 -15.2394 1.3759 4.2170 -29.3438 12.5435 -9.0884 -16.7480 -5.7165 10.8024 -23.6304 26.6657 22.8600 10.1117 33.4051 44.7920 -29.2504 -39.4318 -39.7376 24.7973 -31.2784 47.9888 -10.3173 40.8792 -19.2847 63.5719 -19.2163 23.6690 1.0324 -4.0244 8.5142 -16.9316 2.8233 10.8352 6.4512 -11.3821 -7.4765 3.6490 11.4056 5.8901 18.9022 -4.0726 -1.0527 -1.4937 -4.6048 0.7985 6.0073 2.8518 1.7936 7.2365 4.6488 -0.0914 -1.3339 -4.4999 18.5642 1.9059 -9.8556 9.4313 11.3859 -7.1811 -2.3192 -1.3706 3.9219 3.2127 -0.0812 1.8918 -0.0873 -1.5416 0.0054 -1.5309 0.2376 -4.2220 -2.7785 -1.1840 -0.2317 -0.0029 -0.0330 0.1697 0.0065 -0.0022 0.0055 0.0000 0.0049 0.0067 0.0000 -0.0157 0.0000 0.0000 0.0000
-5.2525 -7.7373 11.7812 -3.5453 -8.7762 1.9614 -0.6614 36.3316 13.4021 0.4945 -4.7104 28.0428 -10.8213 10.5675 15.0816 5.4819 -9.8841 21.6534 -23.8102 -22.5620 -8.8220 -31.4452 -40.3472 26.5536 34.6357 35.1462 -22.1343 28.3179 -43.3761 9.1893 -36.7723 15.0668 -58.4237 18.8076 -20.3602 -2.2596 4.5952 -5.9805 13.8410 -0.8533 -6.5531 -4.7258 12.2451 8.5633 -7.9378 -7.8029 -6.6058 -17.9001 8.8837 6.6894 -1.3948 10.3904 3.0090 -11.2988 -6.2070 -5.4209 -9.9067 -5.8571 0.5587 2.8718 8.1397 -32.8398 -7.4896 20.3791 -14.8540 -19.4900 11.6238 4.2841 0.3619 -4.7910 -5.0450 0.0238 -3.5523 0.0840 2.5624 0.0106 3.7015 -7.2587 0.5479 -2.0321 -3.8247 -2.4837 -0.1163 -0.0798 0.0084 -0.0044 0.0326 -0.0025 0.0000 -0.0013 0.0071 0.0000 0.0164 0.0000 0.0000 0.0000
-10.3381 -0.3694 3.4686 -0.1670 -1.4833 -0.1889 0.9499 -4.2750 -0.7983 0.8516 -0.2309 -5.7543 3.0188 -5.4504 -3.4717 -0.5984 1.5814 -4.9381 4.2386 2.2323 1.3668 3.7979 8.7667 -4.3648 -6.3348 -8.5525 3.7965 -4.2350 9.6947 -1.0668 6.3746 -4.3827 9.9691 -3.8308 1.7430 -0.7513 -0.5162 4.7722 -3.8563 1.0283 3.9243 1.6073 -0.4822 -0.2874 -2.7589 2.4760 0.1004 0.8486 2.8061 9.2695 -1.4351 3.8349 1.6655 -5.6586 -2.4328 -3.3119 -2.4166 -0.9052 0.2438 1.5988 3.9720 -13.3374 -2.4041 8.1163 -6.7167 -8.2269 3.8701 2.2539 0.1146 -2.1353 -1.6250 -0.0623 -1.5122 0.0099 1.0097 -0.0246 4.0319 -2.1373 -0.6640 2.2766 0.0145 -0.0404 -0.0089 0.0170 -0.0207 -0.0488 -0.0455 -0.0070 0.0000 -0.0142 -0.0106 0.0000 0.0104 0.0000 0.0000 0.0000
-2.4074 2.0496 -13.0553 4.6322 17.1525 -13.7273 1.3713 -6.6323 -1.0379 2.7423 1.2709 2.5528 -3.2686 7.3684 1.0725 2.2578 -2.5855 1.9304 1.7217 -0.3225 1.1955 -2.0830 -6.8382 3.8115 -0.2911 2.6081 0.2980 0.9735 -3.1752 1.6597 -0.2269 -0.0418 -1.9053 -1.0878 0.8665 2.5950 -0.2907 -3.1568 1.7173 -1.5973 0.6028 2.5360 3.6571 3.6331 -5.1703 1.0076 -1.6966 -2.9254 5.4257 6.8670 -1.4265 6.8397 4.4562 -7.1981 -1.8703 -4.0768 -3.4281 -2.4971 0.4810 1.5950 4.5810 -17.4329 -4.7036 11.3629 -7.7209 -10.2347 6.0037 2.6803 0.3034 -2.5903 -2.1321 -0.0183 -1.6848 0.0611 1.2975 0.0021 -7.0639 4.9309 3.3845 1.9095 0.9704 -0.3672 0.0145 -0.1030 0.0322 0.0253 0.0046 -0.0150 0.0000 0.0044 0.0087 0.0000 -0.0089 0.0000 0.0000 0.0000
4.4096 3.3108 -4.4621 -1.6127 -6.3883 4.8914 0.6923 -15.1803 -4.4154 -2.0998 3.0412 -13.2176 4.4487 -12.4255 -8.5911 -2.5814 5.2692 -11.7927 12.0584 8.6351 6.1894 15.6965 18.6277 -13.2945 -15.7274 -19.0983 10.7753 -13.8149 18.5196 -3.8638 15.7574 -8.4576 29.6178 -10.1464 10.5994 2.6224 -4.5071 1.3649 -7.2845 0.3616 4.6485 2.7740 -5.9470 -4.1020 4.3341 -0.5589 3.5805 7.7409 -3.0818 1.1626 -0.0836 -4.3995 -2.0840 4.5736 0.7894 1.7198 3.2357 2.4556 -0.3072 -0.8832 -2.6621 11.3893 3.0974 -8.9944 3.3852 4.5394 -5.3758 -2.1840 0.0097 1.4673 1.3844 -0.0002 1.5101 0.0465 -0.9061 -0.0017 3.7665 1.1093 1.5506 1.9630 3.0822 -1.1092 -0.0156 -0.1333 0.0045 0.0405 0.0270 -0.0021 0.0000 -0.0104 -0.0164 0.0000 0.0013 0.0000 0.0000 0.0000
3.7082 1.3638 -10.1776 6.2097 15.0583 -12.5053 5.0667 -5.1069 0.6327 2.5230 2.4839 0.3126 1.5171 3.7952 0.0831 1.0902 -1.4522 2.6990 2.4477 0.9400 1.4862 0.3443 -4.1280 -0.7647 -1.7772 -0.2432 2.4303 -1.9348 0.4505 1.9569 0.9972 0.4151 2.2930 2.8174 4.2880 -1.7537 2.0242 0.7121 -3.0673 -0.4603 0.8716 -1.1496 -0.0891 0.1191 0.2014 0.8206 0.6722 1.3642 -1.9329 -3.2309 0.6057 -1.0640 -0.4068 2.3973 1.1945 1.2441 1.4158 0.4818 -0.0683 -0.6116 -1.2195 5.4816 2.5549 -3.2531 2.8620 2.9165 -2.7319 -1.3918 -1.3980 1.8160 0.9277 -0.0565 0.6704 0.0183 -0.5461 -0.0109 5.0500 4.2534 2.4035 0.8661 -1.0607 0.5566 -0.0337 -0.1541 -0.0524 0.0281 -0.0126 -0.0077 0.0000 -0.0162 -0.0083 0.0000 -0.0025 0.0000 0.0000 0.0000
-3.6491 -5.7698 19.7210 -3.6419 -11.4668 7.9795 -2.3913 24.6331 5.6214 -1.1012 -3.7977 15.1551 -2.3270 9.5431 10.4840 2.9961 -4.3855 11.1665 -15.7501 -8.9417 -7.8217 -17.2266 -23.1966 17.3717 20.5898 22.9062 -13.0078 17.5912 -21.2496 6.5712 -20.0328 12.4709 -37.1249 13.0391 -10.7873 -2.0153 4.5813 -2.7380 7.7465 -0.1417 -6.0914 -4.6571 3.1579 4.8270 0.0343 -6.6727 -2.4138 -8.5879 -1.2843 -7.2970 -1.0046 0.2319 0.3844 -1.1163 2.8759 1.3207 -1.1522 -1.3806 -0.3298 -0.5412 -0.5136 0.1431 -1.2475 -0.6726 -0.5644 0.0448 0.7858 0.2901 2.0348 -1.8156 -0.4153 0.1167 -0.2913 -0.0716 0.2873 0.0030 -5.6989 -0.6429 -2.3135 -1.0291 -3.7082 0.1598 0.2002 0.0135 -0.0362 -0.0048 0.0046 0.0149 0.0000 0.0052 -0.0048 0.0000 -0.0061 0.0000 0.0000 0.0000
16.4631 -6.4692 -12.9167 -3.8990 -4.9264 -1.5715 0.8060 26.8769 12.2248 1.7194 -2.6679 23.0508 -10.0354 13.1446 15.6170 6.2335 -9.6721 19.7499 -22.0464 -19.0202 -7.5564 -27.5742 -38.6839 25.3198 31.4969 34.2439 -19.1118 23.8881 -39.3343 7.4478 -32.4245 12.4687 -53.9376 12.0234 -21.3244 0.7185 2.4959 -8.8768 17.3112 -2.5856 -10.2191 -3.0325 10.3799 6.8179 -4.4853 -7.9458 -5.5166 -15.6613 6.7336 1.5171 1.4873 5.5351 -0.6660 -5.1220 -5.8519 -2.5648 -6.8506 -3.6590 0.3398 1.4913 5.0327 -18.9216 -5.1549 9.4416 -11.4248 -13.8183 5.5092 2.3718 0.2606 -3.3607 -3.6840 0.0210 -2.0119 0.1286 1.5053 -0.0010 11.4861 12.7661 11.2606 -1.1992 -2.7644 -1.3087 -0.0020 -0.0738 -0.1191 -0.0016 0.0028 0.0008 0.0000 -0.0156 -0.0048 0.0000 -0.0005 0.0000 0.0000 0.0000
-0.4990 -2.6081 16.3232 -6.5220 -19.9535 12.5608 -3.8260 30.0611 8.4672 -0.3092 -4.1021 17.7748 -4.2812 5.5856 10.7274 1.3601 -4.2175 13.2879 -19.2925 -13.1417 -8.8107 -19.6947 -22.9368 16.9489 24.9822 25.3020 -15.3394 19.1479 -28.4567 6.8281 -25.6936 10.4719 -41.8153 14.8960 -14.9511 -4.6099 3.7847 -2.2855 9.4982 -0.2080 -7.3569 -6.5080 4.4909 3.8331 1.2962 -4.7257 -2.8099 -10.2788 -2.1697 -8.4150 2.1387 -1.5766 -1.7652 2.0414 2.5541 2.4431 -0.6608 -0.9325 -0.3317 -0.6537 -1.8141 4.4910 -1.2492 -2.2674 2.4259 2.7713 -1.4977 0.2276 0.4538 -0.2117 0.5899 0.0775 0.2333 -0.0252 -0.2061 0.0143 -2.5400 3.3376 -0.3601 1.0465 2.1172 1.2699 0.0110 -0.0432 0.0803 0.0038 0.0181 0.0117 0.0000 0.0230 -0.0024 0.0000 0.0074 0.0000 0.0000 0.0000
1.9913 -2.0182 -9.4429 3.4981 18.4203 -13.8335 1.8332 -4.8800 -2.3470 -0.4813 2.0802 1.5787 -3.1681 5.1558 0.0255 1.5607 -2.1281 1.9628 4.2925 -2.4125 2.3603 -1.0293 -3.3601 1.1400 -0.4232 -0.2071 1.2657 -0.0753 -2.0774 3.6307 -0.5995 -1.6804 1.7501 0.3010 -0.3989 -1.0651 3.0778 5.6085 -1.7818 1.1619 1.9812 1.0552 0.4563 0.4962 -3.1842 1.3198 -0.7572 -0.5110 3.4478 5.9636 1.5288 1.7746 0.9410 -0.9727 -2.4808 -1.8254 -1.6662 -1.2238 0.4049 1.0986 2.6650 -8.9540 0.1424 4.0962 -5.3321 -7.3616 1.3133 -0.0211 -1.0573 -0.4439 -1.3943 -0.0608 -1.0110 0.0330 0.5972 0.0045 1.9901 2.0919 -8.6326 1.8238 2.3366 0.3879 -0.0332 -0.0574 -0.1215 -0.0113 -0.0127 -0.0099 0.0000 0.0018 0.0106 0.0000 0.0040 0.0000 0.0000 0.0000
7.6710 -8.8216 -1.1871 -1.5095 7.2961 -0.2908 -1.7528 11.0205 3.4665 0.2640 -1.9603 10.5667 -6.1642 10.1130 7.7438 3.9146 -5.4299 9.8560 -8.0979 -9.9701 -3.0261 -13.2024 -16.1662 12.2716 12.8002 15.1869 -8.5151 10.4464 -15.9539 1.6621 -13.1360 4.8153 -24.3470 6.6015 -10.0093 -1.8064 4.5748 0.6464 6.6050 1.3414 -3.0063 -1.4135 3.7162 3.9589 -2.0665 -3.4253 -2.1696 -7.9536 1.9827 1.9560 -3.9746 6.0951 1.5300 -7.5439 -1.1355 -2.6268 -4.1909 -2.9591 0.0565 1.2914 3.4684 -15.2624 -4.2824 10.3004 -6.2169 -7.7482 6.3155 2.7577 1.7725 -3.2556 -2.6681 0.0720 -1.6016 0.0326 1.2922 0.0025 1.6381 2.2642 -4.6241 -0.5662 -0.4059 -0.0470 -0.0324 0.0109 -0.0040 -0.0293 -0.0075 -0.0071 0.0000 -0.0148 -0.0157 0.0000 -0.0073 0.0000 0.0000 0.0000
